<svg width="16" height="14" viewBox="0 0 16 14" fill="none" xmlns="http://www.w3.org/2000/svg">
<path fill-rule="evenodd" clip-rule="evenodd" d="M0 1.66623C0 1.17532 0.397973 0.777344 0.888889 0.777344H15.1111C15.602 0.777344 16 1.17532 16 1.66623C16 2.15715 15.602 2.55512 15.1111 2.55512H0.888889C0.397973 2.55512 0 2.15715 0 1.66623ZM0 6.99957C0 6.50863 0.397973 6.11068 0.888889 6.11068H15.1111C15.602 6.11068 16 6.50863 16 6.99957C16 7.4905 15.602 7.88846 15.1111 7.88846H0.888889C0.397973 7.88846 0 7.4905 0 6.99957ZM0.888889 11.444C0.397973 11.444 0 11.842 0 12.3329C0 12.8238 0.397973 13.2218 0.888889 13.2218H15.1111C15.602 13.2218 16 12.8238 16 12.3329C16 11.842 15.602 11.444 15.1111 11.444H0.888889Z" fill="#1E0DFF"/>
</svg>
