<svg width="18" height="18" viewBox="0 0 18 18" fill="none" xmlns="http://www.w3.org/2000/svg">
<g id="Design-Doc/Chevron">
<path id="Vector" d="M7.23214 9.71035C7.14068 9.61739 7.06808 9.50679 7.01854 9.38494C6.96899 9.26309 6.94349 9.13239 6.94349 9.00039C6.94349 8.86838 6.96899 8.73769 7.01854 8.61583C7.06808 8.49398 7.14068 8.38339 7.23214 8.29043L11.7113 3.71069C11.8028 3.61774 11.8754 3.50714 11.925 3.38529C11.9745 3.26344 12 3.13274 12 3.00073C12 2.86873 11.9745 2.73803 11.925 2.61618C11.8754 2.49433 11.8028 2.38373 11.7113 2.29078C11.5285 2.10454 11.2812 2 11.0234 2C10.7656 2 10.5182 2.10454 10.3354 2.29078L5.85618 6.88051C5.30794 7.44298 5 8.20543 5 9.00039C5 9.79534 5.30794 10.5578 5.85618 11.1203L10.3354 15.71C10.5171 15.8947 10.7625 15.9989 11.0185 16C11.1469 16.0007 11.2742 15.9755 11.3931 15.9258C11.512 15.876 11.6202 15.8027 11.7113 15.71C11.8028 15.617 11.8754 15.5064 11.925 15.3846C11.9745 15.2627 12 15.132 12 15C12 14.868 11.9745 14.7373 11.925 14.6155C11.8754 14.4936 11.8028 14.383 11.7113 14.2901L7.23214 9.71035Z" fill="#1F2124"/>
</g>
</svg>
