<svg xmlns="http://www.w3.org/2000/svg" width="20" height="20" viewBox="0 0 21 20" fill="none"><path d="M15.8966 2.54807C16.3305 2.11419 17.0338 2.11419 17.4677 2.54807C17.9017 2.98195 17.9017 3.68525 17.4677 4.11913L4.13441 17.4515C3.70049 17.8854 2.99715 17.8854 2.56323 17.4515C2.12931 17.0176 2.12931 16.3143 2.56323 15.8804L15.8966 2.54807Z" fill="#1F2124"></path><path d="M2.56323 2.54807C2.97003 2.1413 3.61336 2.1162 4.04978 2.47212L4.13441 2.54807L17.4677 15.8804L17.5437 15.965C17.8996 16.4014 17.8745 17.0447 17.4677 17.4515C17.0609 17.8582 16.4176 17.8833 15.9812 17.5274L15.8966 17.4515L2.56323 4.11913L2.48727 4.0345C2.13133 3.59812 2.15643 2.95483 2.56323 2.54807Z" fill="#1F2124"></path></svg>