<svg id="Layer_1" data-name="Layer 1" xmlns="http://www.w3.org/2000/svg" viewBox="0 0 415.54 340.71"><defs><style>.cls-1{fill:#3d3d3d;}.cls-2{fill:#f05332;}.cls-3{fill:#f0efef;}</style></defs><path class="cls-1" d="M275,417.58a189.23,189.23,0,0,0-72.19,31.28l.38-37.64,32.09-9.05c-.13-1.11-.27-2.22-.41-3.33-20,6.83-39.22,6.14-56.86-5.23s-27.38-28.14-28.35-49.4c-1.54-34.06,23.81-61.12,60.67-63.34-4.07,17.83-7.81,35.61.67,53.3-1.44-25.39,4.48-48.29,22.23-66.88s39.48-27.13,65.2-25.59c46,2.76,72.78,34.76,77.6,92.18,5.59-17.31,4.46-34.68-.85-53.14,23.27.55,40.78,10,52.25,29.3,13.46,22.65,12.9,46.06-2.42,67.18-18.55,25.56-44.45,31.25-74.25,21.55l-.52,2.88,32.69,9.81c0,11.89.69,22.75.7,34.65-8.17-5.74-19.52-11.18-32.66-16.85a179.35,179.35,0,0,0-35.06-11c.66-1.29,5.74-11.57.78-21.93a25,25,0,0,0-10.92-11c-8.58-4.72-17-3.5-24.63,2.45a23.42,23.42,0,0,0-7.41,9.37C269.69,406.77,274.21,416,275,417.58Zm-8.94-161.7c24.34-3.18,46.73.69,66.28,16.3s29.77,36.13,32.54,60.77c2.81-29.49-7.33-53.24-31.8-69.93C312.14,248.73,289.49,246.52,266.06,255.88Zm161.78,94.59c7.64-24.88-14.2-59.38-43.26-59.63a67.78,67.78,0,0,1,18.3,10.55,68.46,68.46,0,0,1,13.06,14.09A70.13,70.13,0,0,1,427.84,350.47Z" transform="translate(-84.93 -241.53)"/><path class="cls-2" d="M318.39,442.41c49.22,23.66,78.8,60.58,85.33,117.27a.73.73,0,0,1-.73.8H388.86l-227.46,0c-13,0-13.7-.9-11.3-14,11.39-62.06,64.07-110.92,128-118.75,6.37-.78,9.68-1.48,10.59-3.34s-1-3.63-3.85-10.25c-.3-.68-.56-1.34-.81-1.95a9.88,9.88,0,0,1,.21-7.87l0-.06c.46-1,.91-1.87.91-1.87l0-.09a8.31,8.31,0,0,1,12.62-2.72,15.38,15.38,0,0,1,3.66,4.05c2.11,3.59,2.27,9.42,1.06,13.62-2.24,7.78.67,9.55,7.66,10.39,63.71,7.7,112,49.44,128.88,111.15,1.16,4.22,2.44,8.61,2.37,12.9,0,.44,0,.87,0,1.3.18,5.52-7,8-10.16,3.51A12.42,12.42,0,0,1,430,554c-5.64-14.61-8.7-30.49-16-44.11-19.43-36.12-48.28-57.53-88.42-66.5A44.73,44.73,0,0,0,318.39,442.41Z" transform="translate(-84.93 -241.53)"/><path class="cls-1" d="M430.18,492.27,421,479.71l-2.47-3c3.95-2.63,8.29-4.81,11.75-8,8-7.3,14-14.63,16-27,2.61-16.73,15.69-27.87,32.56-32.18,14.75-3.77,23.49,4.88,21.3,20-2.09,14.48-18.61,33.24-33.48,34-11.14.56-17.29,6.21-23.64,13.18C438.84,481.27,435.1,486.26,430.18,492.27Zm59.57-47.82c1.32-1.55,9.84-11.79,7.38-21.84a13.17,13.17,0,0,0-3.09-6.1c-3.45-3.71-8.28-4.07-10.81-4.26-8.08-.6-14.25,3.49-16.5,5.16a17.76,17.76,0,1,1,23,27Z" transform="translate(-84.93 -241.53)"/><path class="cls-1" d="M170.12,479.17l-7.18,8.88-4.28,5c-2.81-4.7-5-9.94-8.57-14-5.66-6.4-11-13.9-21.35-13.22-1.5.1-3.39-1.44-4.65-2.68q-19.65-19.49-39.16-39.13l2.69-3.19L113,443.3l3.34-3.23c-3.79-4.18-7.53-8.4-11.36-12.55s-7.75-8.27-11.63-12.39l2.67-3.08,25.38,23,3.39-3.51L102.14,407l3.74-3.49c2.42,2.59,4.38,4.6,5.54,5.77,14.65,14.89,20,19.85,31,31,1.52,1.53,3.76,3.33,3.87,5.12C147.29,461.17,161.23,467.73,170.12,479.17Zm-39.84-35.73c-.35.36,5.08,6.63,11.09,12.38,2.63,2.52,4.53,4.13,5.41,4.9a77.66,77.66,0,0,1,17.27,21.91c1.15-.51.92-1.81,2.07-2.32a227.3,227.3,0,0,0-26.3-28.87C138.76,450.46,130.69,443,130.28,443.44Z" transform="translate(-84.93 -241.53)"/><path class="cls-2" d="M468.73,582.23H126a5,5,0,0,1-5-5v-3.15a5,5,0,0,1,5-5H468.73a5,5,0,0,1,5,5v3.15A5,5,0,0,1,468.73,582.23Z" transform="translate(-84.93 -241.53)"/><path class="cls-2" d="M311.78,407.61a16.5,16.5,0,1,1-16.5-16.5A16.5,16.5,0,0,1,311.78,407.61Z" transform="translate(-84.93 -241.53)"/><path class="cls-3" d="M305.59,400.73a13.55,13.55,0,0,1,2.07,9.28,16.79,16.79,0,0,0-13.75-15.12C294.46,394.88,301.64,394.86,305.59,400.73Z" transform="translate(-84.93 -241.53)"/></svg>